HIERARCHY
ROOT Hips
{
	OFFSET 0.000000 103.266502 0.000000
	CHANNELS 6 Xposition Yposition Zposition Xrotation Yrotation Zrotation 
	JOINT Spine
	{
		OFFSET -0.002400 12.777504 0.315300
		CHANNELS 3 Xrotation Yrotation Zrotation
		JOINT Spine1
		{
			OFFSET -0.002067 5.816869 0.032633
			CHANNELS 3 Xrotation Yrotation Zrotation
			JOINT Spine1_split
			{
				OFFSET -0.002067 5.816869 0.032633
				CHANNELS 3 Xrotation Yrotation Zrotation
				JOINT Spine2
				{
					OFFSET -0.002067 5.816869 0.032633
					CHANNELS 3 Xrotation Yrotation Zrotation
					JOINT Neck
					{
						OFFSET -0.003700 21.199493 -0.826900
						CHANNELS 3 Xrotation Yrotation Zrotation
						JOINT Head
						{
							OFFSET 0.000000 20.442200 4.834800
							CHANNELS 3 Xrotation Yrotation Zrotation
							JOINT HeadTop_End
							{
								OFFSET 0.000000 34.668396 4.968400
								CHANNELS 3 Xrotation Yrotation Zrotation
								End Site
								{
									OFFSET 0.000000 0.000000 0.000000
								}
							}
						}
					}
					JOINT LeftShoulder
					{
						OFFSET 3.288150 8.794197 -1.372250
						CHANNELS 3 Xrotation Yrotation Zrotation
						JOINT LeftShoulder_split
						{
							OFFSET 3.288150 8.794197 -1.372250
							CHANNELS 3 Xrotation Yrotation Zrotation
							JOINT LeftArm
							{
								OFFSET 11.953299 -2.279007 -0.146200
								CHANNELS 3 Xrotation Yrotation Zrotation
								JOINT LeftForeArm
								{
									OFFSET 18.448900 0.000000 0.000000
									CHANNELS 3 Xrotation Yrotation Zrotation
									JOINT LeftHand
									{
										OFFSET 29.527798 0.000000 0.000000
										CHANNELS 3 Xrotation Yrotation Zrotation
										JOINT LeftHandThumb1
										{
											OFFSET 10.739754 -2.369614 9.225399
											CHANNELS 3 Xrotation Yrotation Zrotation
											JOINT LeftHandThumb2
											{
												OFFSET 4.926170 -2.844131 2.844125
												CHANNELS 3 Xrotation Yrotation Zrotation
												JOINT LeftHandThumb3
												{
													OFFSET 4.614891 -2.664413 2.664409
													CHANNELS 3 Xrotation Yrotation Zrotation
													JOINT LeftHandThumb4
													{
														OFFSET 4.432465 -2.559082 2.559083
														CHANNELS 3 Xrotation Yrotation Zrotation
														End Site
														{
															OFFSET 0.000000 0.000000 0.000000
														}
													}
												}
											}
										}
										JOINT LeftHandIndex1
										{
											OFFSET 26.467674 0.187653 6.405298
											CHANNELS 3 Xrotation Yrotation Zrotation
											JOINT LeftHandIndex2
											{
												OFFSET 8.792900 0.000000 0.000000
												CHANNELS 3 Xrotation Yrotation Zrotation
												JOINT LeftHandIndex3
												{
													OFFSET 10.075203 0.000000 0.000000
													CHANNELS 3 Xrotation Yrotation Zrotation
													End Site
													{
														OFFSET 0.000000 0.000000 0.000000
													}
												}
											}
										}
										JOINT LeftHandMiddle1
										{
											OFFSET 25.764404 0.000000 0.000000
											CHANNELS 3 Xrotation Yrotation Zrotation
											JOINT LeftHandMiddle2
											{
												OFFSET 9.393974 0.000000 0.000000
												CHANNELS 3 Xrotation Yrotation Zrotation
												JOINT LeftHandMiddle3
												{
													OFFSET 10.771950 0.000000 0.000000
													CHANNELS 3 Xrotation Yrotation Zrotation
													End Site
													{
														OFFSET 0.000000 0.000000 0.000000
													}
												}
											}
										}
										JOINT LeftHandRing1
										{
											OFFSET 24.660927 0.144547 -6.225808
											CHANNELS 3 Xrotation Yrotation Zrotation
											JOINT LeftHandRing2
											{
												OFFSET 9.393799 0.000000 0.000000
												CHANNELS 3 Xrotation Yrotation Zrotation
												JOINT LeftHandRing3
												{
													OFFSET 9.928497 0.000000 0.000000
													CHANNELS 3 Xrotation Yrotation Zrotation
													End Site
													{
														OFFSET 0.000000 0.000000 0.000000
													}
												}
											}
										}
										JOINT LeftHandPinky1
										{
											OFFSET 23.655350 0.125290 -12.815412
											CHANNELS 3 Xrotation Yrotation Zrotation
											JOINT LeftHandPinky2
											{
												OFFSET 8.425102 0.000000 0.000000
												CHANNELS 3 Xrotation Yrotation Zrotation
												JOINT LeftHandPinky3
												{
													OFFSET 8.147003 0.000000 0.000000
													CHANNELS 3 Xrotation Yrotation Zrotation
													End Site
													{
														OFFSET 0.000000 0.000000 0.000000
													}
												}
											}
										}
									}
								}
							}
						}
					}
					JOINT RightShoulder
					{
						OFFSET -3.249400 8.794197 -1.372250
						CHANNELS 3 Xrotation Yrotation Zrotation
						JOINT RightShoulder_split
						{
							OFFSET -3.249400 8.794197 -1.372250
							CHANNELS 3 Xrotation Yrotation Zrotation
							JOINT RightArm
							{
								OFFSET -11.953299 -2.279007 -0.146200
								CHANNELS 3 Xrotation Yrotation Zrotation
								JOINT RightForeArm
								{
									OFFSET -18.448900 0.000000 0.000000
									CHANNELS 3 Xrotation Yrotation Zrotation
									JOINT RightHand
									{
										OFFSET -29.527802 0.000000 0.000000
										CHANNELS 3 Xrotation Yrotation Zrotation
										JOINT RightHandThumb1
										{
											OFFSET -10.739754 -2.369614 9.225399
											CHANNELS 3 Xrotation Yrotation Zrotation
											JOINT RightHandThumb2
											{
												OFFSET -4.926170 -2.844131 2.844125
												CHANNELS 3 Xrotation Yrotation Zrotation
												JOINT RightHandThumb3
												{
													OFFSET -4.614891 -2.664413 2.664409
													CHANNELS 3 Xrotation Yrotation Zrotation
													JOINT RightHandThumb4
													{
														OFFSET -4.432465 -2.559082 2.559083
														CHANNELS 3 Xrotation Yrotation Zrotation
														End Site
														{
															OFFSET 0.000000 0.000000 0.000000
														}
													}
												}
											}
										}
										JOINT RightHandIndex1
										{
											OFFSET -26.467674 0.187653 6.405298
											CHANNELS 3 Xrotation Yrotation Zrotation
											JOINT RightHandIndex2
											{
												OFFSET -8.792900 0.000000 0.000000
												CHANNELS 3 Xrotation Yrotation Zrotation
												JOINT RightHandIndex3
												{
													OFFSET -10.075203 0.000000 0.000000
													CHANNELS 3 Xrotation Yrotation Zrotation
													End Site
													{
														OFFSET 0.000000 0.000000 0.000000
													}
												}
											}
										}
										JOINT RightHandMiddle1
										{
											OFFSET -25.764404 0.000000 0.000000
											CHANNELS 3 Xrotation Yrotation Zrotation
											JOINT RightHandMiddle2
											{
												OFFSET -9.393974 0.000000 0.000000
												CHANNELS 3 Xrotation Yrotation Zrotation
												JOINT RightHandMiddle3
												{
													OFFSET -10.771950 0.000000 0.000000
													CHANNELS 3 Xrotation Yrotation Zrotation
													End Site
													{
														OFFSET 0.000000 0.000000 0.000000
													}
												}
											}
										}
										JOINT RightHandRing1
										{
											OFFSET -24.660927 0.144547 -6.225808
											CHANNELS 3 Xrotation Yrotation Zrotation
											JOINT RightHandRing2
											{
												OFFSET -9.393799 0.000000 0.000000
												CHANNELS 3 Xrotation Yrotation Zrotation
												JOINT RightHandRing3
												{
													OFFSET -9.928497 0.000000 0.000000
													CHANNELS 3 Xrotation Yrotation Zrotation
													End Site
													{
														OFFSET 0.000000 0.000000 0.000000
													}
												}
											}
										}
										JOINT RightHandPinky1
										{
											OFFSET -23.655350 0.125290 -12.815412
											CHANNELS 3 Xrotation Yrotation Zrotation
											JOINT RightHandPinky2
											{
												OFFSET -8.425102 0.000000 0.000000
												CHANNELS 3 Xrotation Yrotation Zrotation
												JOINT RightHandPinky3
												{
													OFFSET -8.147003 0.000000 0.000000
													CHANNELS 3 Xrotation Yrotation Zrotation
													End Site
													{
														OFFSET 0.000000 0.000000 0.000000
													}
												}
											}
										}
									}
								}
							}
						}
					}
				}
			}
		}
	}
	JOINT LeftUpLeg
	{
		OFFSET 11.394100 -6.187798 -0.413800
		CHANNELS 3 Xrotation Yrotation Zrotation
		JOINT LeftLeg
		{
			OFFSET 0.430247 -32.302673 3.732800
			CHANNELS 3 Xrotation Yrotation Zrotation
			JOINT LeftFoot
			{
				OFFSET -0.430247 -48.264931 -6.423300
				CHANNELS 3 Xrotation Yrotation Zrotation
				JOINT LeftToeBase
				{
					OFFSET 4.230900 -16.068199 23.438400
					CHANNELS 3 Xrotation Yrotation Zrotation
					JOINT LeftToe_End
					{
						OFFSET 4.510700 0.695400 19.974600
						CHANNELS 3 Xrotation Yrotation Zrotation
						End Site
						{
							OFFSET 0.000000 0.000000 0.000000
						}
					}
				}
			}
		}
	}
	JOINT RightUpLeg
	{
		OFFSET -11.333700 -6.187798 -0.413800
		CHANNELS 3 Xrotation Yrotation Zrotation
		JOINT RightLeg
		{
			OFFSET -0.430392 -32.302628 3.733000
			CHANNELS 3 Xrotation Yrotation Zrotation
			JOINT RightFoot
			{
				OFFSET 0.430392 -48.264973 -6.423500
				CHANNELS 3 Xrotation Yrotation Zrotation
				JOINT RightToeBase
				{
					OFFSET -4.230900 -16.068199 23.438400
					CHANNELS 3 Xrotation Yrotation Zrotation
					JOINT RightToe_End
					{
						OFFSET -4.510700 0.695400 19.974600
						CHANNELS 3 Xrotation Yrotation Zrotation
						End Site
						{
							OFFSET 0.000000 0.000000 0.000000
						}
					}
				}
			}
		}
	}
}
MOTION
Frames: 6
Frame Time: 0.016667
8.338327 92.086838 1.680697 7.618977 -12.420995 -1.108115 12.239953 3.439665 -0.834761 8.663412 6.770424 -1.612663 0.000000 0.000000 0.000000 -3.297295 6.958099 -0.159534 -0.991918 -3.974976 2.371376 -6.068524 4.595728 3.692734 0.000000 0.000000 0.000001 -1.718768 -6.046466 -0.999763 0.000000 0.000000 0.000000 -9.929220 -3.537260 -61.475657 -13.021846 -28.779227 -4.874874 3.253031 -3.484874 2.550470 9.040743 -12.718916 18.216736 1.363582 15.487437 -8.835097 2.768803 5.065082 -0.579230 -0.000001 0.000001 0.000001 0.246861 -3.282373 -9.380886 0.146901 -0.568594 -12.524023 0.000000 -0.000001 0.000000 0.303769 -1.400857 -19.445146 -0.067844 -0.992378 -19.744945 0.000001 0.000000 0.000001 0.311363 -1.053625 -29.065607 -0.418716 -1.362105 -26.922208 -0.000003 -0.000000 -0.000002 0.350743 -0.343926 -35.674672 -0.294689 -1.232618 -23.599876 -0.000002 0.000000 -0.000001 5.719870 -19.303438 3.068948 0.000000 0.000000 0.000000 43.556724 52.747611 9.950978 16.038097 32.046821 10.507648 -14.715637 13.315887 13.704572 9.209781 13.472172 -12.080026 2.060336 -16.534831 8.984666 2.637311 -3.206714 2.677727 -0.000000 0.000000 0.000002 0.272414 4.252667 3.917177 0.097346 0.794959 17.452778 -0.000001 -0.000000 -0.000001 0.238352 1.901017 12.464130 -0.127029 0.878988 17.470142 0.000001 0.000002 0.000001 0.354438 1.611344 15.137395 -0.271889 0.900470 18.135631 0.000000 -0.000001 -0.000002 0.691710 0.544320 20.829727 -0.117077 0.729745 14.164452 -0.000001 0.000002 0.000001 -43.401918 4.886614 13.602895 50.633050 10.694765 -0.605022 -13.280687 3.605551 -7.560220 -3.075538 -2.348343 -2.459419 -0.000000 0.000000 0.000000 -32.850082 -5.828513 -15.024239 53.708940 -10.289256 -4.306140 -13.965495 -1.715749 12.182303 -15.200856 -4.745647 7.175883 -0.000000 -0.000000 -0.000000 
8.462373 92.483269 1.563006 7.678736 -12.469189 -1.448610 12.192848 3.396272 -0.754319 8.547014 6.722063 -1.512191 0.000000 0.000000 0.000000 -3.408226 6.901167 -0.063846 -1.053639 -3.761029 2.184398 -5.982006 4.507764 3.913932 0.000001 -0.000000 -0.000001 -1.721889 -5.625958 -0.861950 0.000000 0.000000 0.000000 -9.809318 -3.483227 -61.749643 -12.683619 -28.217813 -4.423330 2.945147 -3.556551 2.922824 8.621190 -13.079498 18.342610 1.306465 15.454491 -8.827670 2.548441 4.752308 -0.598167 -0.000001 0.000001 -0.000003 0.229291 -3.521994 -8.971268 0.151031 -0.550435 -12.121729 -0.000001 0.000001 0.000000 0.267616 -1.573913 -19.285061 -0.064368 -0.926964 -18.408121 0.000000 0.000001 0.000001 0.257082 -1.314067 -28.904261 -0.368991 -1.304186 -25.643810 -0.000003 -0.000001 0.000001 0.348993 -0.523210 -35.437166 -0.234767 -1.172896 -22.279346 -0.000000 0.000001 -0.000001 5.552869 -18.831825 2.973355 0.000000 0.000000 0.000000 39.568256 52.456601 11.456164 15.406275 28.844346 12.492167 -12.915776 11.870658 10.921210 8.723126 10.519477 -15.535912 3.760563 -18.612721 9.384815 2.619902 -3.214951 2.638597 0.000000 -0.000000 -0.000001 0.272399 4.252688 3.917182 0.097367 0.794923 17.452759 -0.000001 -0.000002 -0.000002 0.238595 1.901086 12.464084 -0.126999 0.878890 17.470150 0.000001 -0.000001 -0.000001 0.333465 1.685665 16.601050 -0.293349 0.971919 19.599069 0.000000 -0.000001 -0.000000 0.658925 0.626604 22.524495 -0.138288 0.820292 15.858965 0.000000 -0.000001 -0.000003 -43.046875 4.939153 13.772848 49.702600 10.671563 -0.526972 -12.885906 3.562654 -7.396151 -3.075509 -2.348358 -2.459409 -0.000000 0.000001 0.000000 -31.921217 -6.311917 -14.357647 51.226835 -9.324412 -4.142643 -14.279155 -1.168791 12.545149 -14.272385 -2.388034 5.487243 -0.000000 -0.000001 -0.000001 
8.570355 92.910912 1.431734 7.695426 -12.620941 -1.642693 12.125917 3.371684 -0.680225 8.392767 6.705786 -1.434637 0.000000 0.000000 0.000000 -3.557803 6.874138 0.015578 -1.257219 -3.492915 1.762464 -5.750388 4.331827 4.311510 0.000001 -0.000000 -0.000000 -1.718686 -4.981517 -0.876835 0.000000 0.000000 0.000000 -9.749999 -3.501926 -62.027414 -12.393335 -27.714439 -3.952357 2.908207 -3.641425 2.842474 8.234327 -13.400432 18.456472 1.254983 15.424691 -8.821081 2.348805 4.470548 -0.616918 -0.000001 0.000000 0.000001 0.217569 -3.737801 -8.582428 0.154707 -0.534107 -11.758765 -0.000000 0.000000 0.000000 0.236385 -1.729265 -19.127287 -0.062510 -0.868305 -17.202219 0.000001 -0.000002 -0.000000 0.210332 -1.547678 -28.740128 -0.325334 -1.250633 -24.490869 -0.000001 -0.000000 -0.000001 0.351879 -0.683514 -35.201176 -0.181884 -1.117248 -21.088352 -0.000001 0.000000 0.000001 5.335519 -18.451761 2.888870 0.000000 0.000000 0.000000 35.701290 51.672300 13.059085 16.301531 26.406563 13.088702 -11.445509 11.784227 6.571868 8.389698 8.489649 -17.965511 4.956777 -20.040663 9.703267 2.602554 -3.223207 2.599442 -0.000001 0.000002 0.000000 0.272402 4.252692 3.917164 0.097333 0.794945 17.452837 0.000001 0.000000 -0.000001 0.238816 1.901183 12.464105 -0.127009 0.878927 17.470133 -0.000001 -0.000000 -0.000002 0.317769 1.737026 17.612020 -0.308437 1.021272 20.610000 -0.000002 0.000002 0.000002 0.634950 0.682611 23.695193 -0.152821 0.879848 17.029605 -0.000001 -0.000000 0.000002 -42.511531 5.144808 13.851229 48.599634 10.683603 -0.449914 -12.441318 3.555180 -7.240004 -3.075506 -2.348374 -2.459414 -0.000000 0.000001 -0.000000 -30.813572 -6.692181 -13.810514 48.446494 -8.475765 -3.968353 -14.541433 -0.653363 12.815387 -11.724250 -2.235866 4.212636 -0.000000 0.000002 0.000000 
8.634622 93.313133 1.328357 7.716413 -12.724330 -1.825998 12.057242 3.349135 -0.606321 8.235408 6.693144 -1.358528 0.000000 0.000000 0.000000 -3.710604 6.857831 0.094730 -1.458330 -3.264164 1.331756 -5.486254 4.125539 4.660445 0.000003 0.000000 0.000000 -1.716041 -4.454584 -0.893411 0.000000 0.000000 0.000000 -9.717396 -3.541834 -62.272276 -11.923617 -27.096113 -3.494359 2.744755 -3.959306 2.862289 7.883958 -13.676949 18.558654 1.209525 15.398668 -8.814993 2.172642 4.223000 -0.634727 0.000000 0.000001 -0.000001 0.211193 -3.927034 -8.217445 0.157844 -0.519709 -11.439752 0.000000 0.000001 0.000000 0.210196 -1.865053 -18.972496 -0.061827 -0.817024 -16.141848 0.000002 -0.000001 0.000001 0.171269 -1.751788 -28.573629 -0.287838 -1.202497 -23.477073 0.000000 0.000000 0.000001 0.356398 -0.823099 -34.967481 -0.136341 -1.066884 -20.041237 -0.000002 0.000002 0.000002 5.098990 -17.776587 2.830945 0.000000 0.000000 0.000000 31.146814 51.316874 16.165644 17.702662 22.785030 11.882986 -9.757206 12.247053 4.285809 8.265272 7.734453 -18.880852 5.407735 -20.572236 9.831250 2.585098 -3.231389 2.560345 -0.000001 -0.000001 -0.000000 0.272384 4.252679 3.917162 0.097380 0.794962 17.452802 0.000003 0.000000 0.000001 0.239045 1.901194 12.464076 -0.126994 0.878942 17.470135 0.000001 0.000002 -0.000003 0.313147 1.756766 17.989229 -0.312744 1.040282 20.987156 -0.000001 -0.000002 0.000000 0.625758 0.703341 24.132018 -0.156826 0.902496 17.466320 -0.000001 0.000002 -0.000005 -42.041607 5.521282 13.901974 47.505875 10.471111 -0.201274 -12.017203 3.627756 -7.092550 -3.075527 -2.348387 -2.459427 -0.000000 -0.000000 -0.000000 -29.708888 -7.041425 -13.362253 45.695752 -7.920769 -3.732432 -14.677641 0.035837 13.074117 -8.843845 -2.898057 4.936611 -0.000000 0.000002 0.000000 
8.728182 93.668991 1.142357 7.733761 -12.846375 -2.001667 11.987631 3.327651 -0.532959 8.076084 6.682151 -1.283644 0.000000 0.000000 0.000000 -3.865396 6.846916 0.173205 -1.691411 -3.047243 0.751944 -5.158181 3.831014 5.063942 0.000003 0.000000 -0.000000 -1.703482 -4.073360 -1.096773 0.000000 0.000000 0.000000 -9.664146 -3.522010 -62.401325 -11.500614 -26.618029 -3.042157 2.459124 -4.058514 2.395185 7.573823 -13.904499 18.649183 1.170960 15.376578 -8.809680 2.022629 4.013045 -0.650870 -0.000001 0.000002 0.000002 0.209534 -4.086950 -7.879186 0.160493 -0.507486 -11.168796 0.000001 -0.000001 0.000000 0.189246 -1.979469 -18.821367 -0.062000 -0.773672 -15.241637 -0.000000 0.000002 0.000001 0.140095 -1.923741 -28.405066 -0.256669 -1.160878 -22.616503 -0.000002 0.000000 0.000001 0.362144 -0.940254 -34.737263 -0.098367 -1.023072 -19.152344 -0.000000 0.000001 0.000003 4.854598 -16.949463 2.779316 0.000000 0.000000 0.000000 27.281640 49.320263 18.941547 19.387564 21.796653 11.319696 -7.957911 11.669720 0.884149 8.265312 7.734407 -18.880883 5.407708 -20.572212 9.831391 2.567654 -3.239589 2.521196 0.000000 0.000000 0.000000 0.272424 4.252692 3.917174 0.097354 0.794960 17.452798 0.000002 -0.000000 -0.000001 0.239283 1.901247 12.464072 -0.127005 0.878940 17.470147 0.000000 -0.000000 0.000002 0.313116 1.756891 17.989197 -0.310289 1.041338 20.987107 0.000000 0.000001 0.000000 0.625809 0.703315 24.132013 -0.154055 0.903415 17.466308 -0.000001 0.000001 -0.000002 -41.634149 5.619491 13.931078 46.553784 10.561548 -0.110543 -11.565299 3.610574 -6.987939 -3.075511 -2.348379 -2.459423 -0.000000 -0.000001 0.000000 -28.805981 -7.383094 -12.934341 43.075165 -7.544968 -3.614140 -14.618055 0.815211 13.345756 -6.091142 -2.859776 6.888664 -0.000000 -0.000001 0.000000 
8.832955 94.001541 0.984525 7.741403 -12.987156 -2.176819 11.917469 3.307467 -0.456096 7.915922 6.670849 -1.209775 0.000000 0.000000 0.000000 -4.021065 6.836051 0.250614 -1.840864 -2.854065 0.319121 -4.930049 3.603732 5.350209 0.000001 -0.000000 -0.000001 -1.693606 -3.827968 -1.241115 0.000000 0.000000 0.000000 -9.593852 -3.482806 -62.534999 -11.037048 -26.271935 -2.727125 2.136529 -3.166046 1.981399 7.308051 -14.078358 18.728425 1.139985 15.358739 -8.805751 1.901345 3.843942 -0.664484 0.000000 -0.000000 -0.000002 0.212085 -4.214727 -7.570612 0.162659 -0.497629 -10.950535 0.000000 0.000001 -0.000000 0.173801 -2.070612 -18.674507 -0.062250 -0.737355 -14.516309 0.000002 -0.000001 0.000000 0.117121 -2.060763 -28.234749 -0.233597 -1.130759 -21.922833 -0.000001 0.000001 0.000000 0.368889 -1.033072 -34.511389 -0.069744 -0.991735 -18.435736 -0.000001 -0.000001 0.000000 4.610793 -16.271285 2.746254 0.000000 0.000000 0.000000 24.194347 47.069156 21.401105 20.960216 21.627937 10.737953 -6.553077 10.545130 -2.380002 8.265312 7.734434 -18.880907 5.407731 -20.572205 9.831422 2.550236 -3.247752 2.482073 -0.000000 0.000001 0.000000 0.272421 4.252705 3.917175 0.097353 0.794950 17.452798 0.000000 -0.000001 -0.000001 0.239518 1.901338 12.464059 -0.127007 0.878957 17.470152 0.000002 -0.000002 0.000003 0.313041 1.757030 17.989228 -0.307811 1.042414 20.987100 0.000000 -0.000001 0.000002 0.625809 0.703250 24.131994 -0.151295 0.904333 17.466260 -0.000000 -0.000001 0.000002 -41.191297 5.572661 13.982776 45.687012 10.792775 -0.150708 -11.160103 3.557058 -6.897633 -3.075495 -2.348383 -2.459420 0.000000 0.000000 -0.000000 -27.792970 -7.769977 -12.438765 40.310298 -6.961234 -3.600003 -14.502773 1.232159 13.513439 -4.406077 -3.051668 6.171532 0.000000 -0.000002 -0.000000 
